<svg width="39" height="42" viewBox="0 0 39 42" fill="none" xmlns="http://www.w3.org/2000/svg">
<path fill-rule="evenodd" clip-rule="evenodd" d="M29.541 1L38 9.57585V37.1905C38 39.2944 36.3177 41 34.2424 41H10.7576C8.68232 41 7 39.2944 7 37.1905V4.80952C7 2.70558 8.68232 1 10.7576 1H29.541Z" fill="white"/>
<path fill-rule="evenodd" clip-rule="evenodd" d="M29.9952 0L39 9.00464V38C39 40.2091 37.2091 42 35 42H10C7.79086 42 6 40.2091 6 38V4C6 1.79086 7.79086 0 10 0H29.9952ZM27.999 1.999L10 2C8.94564 2 8.08183 2.81588 8.00549 3.85074L8 4V38C8 39.0544 8.81588 39.9182 9.85074 39.9945L10 40H35C36.0544 40 36.9182 39.1841 36.9945 38.1493L37 38V11H32C29.7909 11 28 9.20914 28 7L27.999 1.999ZM29.999 2.833L30 7C30 8.05436 30.8159 8.91817 31.8507 8.99451L32 9H36.167L29.999 2.833Z" fill="#979CA9"/>
<path fill-rule="evenodd" clip-rule="evenodd" d="M2 18H32C33.1046 18 34 18.8954 34 20V34C34 35.1046 33.1046 36 32 36H2C0.89543 36 0 35.1046 0 34V20C0 18.8954 0.89543 18 2 18Z" fill="#CF6662"/>
<path fill-rule="evenodd" clip-rule="evenodd" d="M7.87051 31C7.95117 31 8.01717 30.9762 8.06851 30.9285C8.11984 30.8808 8.14551 30.8167 8.14551 30.736V28.162H9.76251C10.6498 28.162 11.3465 27.9585 11.8525 27.5515C12.3585 27.1445 12.6115 26.545 12.6115 25.753C12.6115 24.9537 12.3585 24.345 11.8525 23.927C11.3465 23.509 10.6498 23.3 9.76251 23.3H6.81451C6.73384 23.3 6.66967 23.3257 6.62201 23.377C6.57434 23.4283 6.55051 23.4943 6.55051 23.575V30.736C6.55051 30.8093 6.57617 30.8717 6.62751 30.923C6.67884 30.9743 6.74117 31 6.81451 31H7.87051ZM9.70751 26.93H8.12351V24.532H9.70751C10.1475 24.532 10.4757 24.6383 10.692 24.851C10.9083 25.0637 11.0165 25.3607 11.0165 25.742C11.0165 26.1307 10.9047 26.4258 10.681 26.6275C10.4573 26.8292 10.1328 26.93 9.70751 26.93ZM19.239 30.2685C18.7147 30.7562 17.9062 31 16.8135 31H14.0745C14.0012 31 13.9388 30.9743 13.8875 30.923C13.8362 30.8717 13.8105 30.8093 13.8105 30.736V23.575C13.8105 23.4943 13.8343 23.4283 13.882 23.377C13.9297 23.3257 13.9938 23.3 14.0745 23.3H16.7585C18.9218 23.3 20.0255 24.2973 20.0695 26.292C20.0821 26.6566 20.0893 26.9188 20.0911 27.0786L20.0915 27.15C20.0915 27.2893 20.0842 27.5717 20.0695 27.997C20.0402 29.0237 19.7633 29.7808 19.239 30.2685ZM16.7585 29.724H15.3615V24.576H16.7035C17.3195 24.576 17.7705 24.7172 18.0565 24.9995C18.3425 25.2818 18.4928 25.7237 18.5075 26.325C18.5222 26.7503 18.5295 27.0217 18.5295 27.139L18.5292 27.188C18.5276 27.3203 18.5203 27.579 18.5075 27.964C18.4928 28.5947 18.3498 29.0457 18.0785 29.317C17.8072 29.5883 17.3672 29.724 16.7585 29.724ZM22.9955 30.923C22.9442 30.9743 22.8782 31 22.7975 31H21.8075C21.7342 31 21.6718 30.9743 21.6205 30.923C21.5692 30.8717 21.5435 30.8093 21.5435 30.736V23.575C21.5435 23.4943 21.5673 23.4283 21.615 23.377C21.6627 23.3257 21.7268 23.3 21.8075 23.3H26.5925C26.6732 23.3 26.7392 23.3257 26.7905 23.377C26.8418 23.4283 26.8675 23.4943 26.8675 23.575V24.367C26.8675 24.4403 26.8418 24.5027 26.7905 24.554C26.7392 24.6053 26.6732 24.631 26.5925 24.631H23.0725V26.699H26.3725C26.4532 26.699 26.5192 26.7247 26.5705 26.776C26.6218 26.8273 26.6475 26.8897 26.6475 26.963V27.755C26.6475 27.8283 26.6218 27.8907 26.5705 27.942C26.5192 27.9933 26.4532 28.019 26.3725 28.019H23.0725V30.736C23.0725 30.8093 23.0468 30.8717 22.9955 30.923Z" fill="white"/>
</svg>
