<svg width="39" height="42" viewBox="0 0 39 42" fill="none" xmlns="http://www.w3.org/2000/svg">
<path fill-rule="evenodd" clip-rule="evenodd" d="M29.541 1L38 9.57585V37.1905C38 39.2944 36.3177 41 34.2424 41H10.7576C8.68232 41 7 39.2944 7 37.1905V4.80952C7 2.70558 8.68232 1 10.7576 1H29.541Z" fill="white"/>
<path fill-rule="evenodd" clip-rule="evenodd" d="M29.9952 0L39 9.00464V38C39 40.2091 37.2091 42 35 42H10C7.79086 42 6 40.2091 6 38V4C6 1.79086 7.79086 0 10 0H29.9952ZM27.999 1.999L10 2C8.94564 2 8.08183 2.81588 8.00549 3.85074L8 4V38C8 39.0544 8.81588 39.9182 9.85074 39.9945L10 40H35C36.0544 40 36.9182 39.1841 36.9945 38.1493L37 38V11H32C29.7909 11 28 9.20914 28 7L27.999 1.999ZM29.999 2.833L30 7C30 8.05436 30.8159 8.91817 31.8507 8.99451L32 9H36.167L29.999 2.833Z" fill="#5B85CE"/>
<path fill-rule="evenodd" clip-rule="evenodd" d="M2 18H32C33.1046 18 34 18.8954 34 20V34C34 35.1046 33.1046 36 32 36H2C0.89543 36 0 35.1046 0 34V20C0 18.8954 0.89543 18 2 18Z" fill="#5B85CE"/>
<path fill-rule="evenodd" clip-rule="evenodd" d="M24.992 30.835C24.519 31.0183 23.9708 31.11 23.3475 31.11C22.6875 31.11 22.1228 31.011 21.6535 30.813C21.1842 30.615 20.8285 30.3547 20.5865 30.032C20.3445 29.7093 20.2162 29.3573 20.2015 28.976C20.2015 28.9173 20.2235 28.8642 20.2675 28.8165C20.3115 28.7688 20.3665 28.745 20.4325 28.745H21.4335C21.5142 28.745 21.5802 28.7633 21.6315 28.8C21.6828 28.8367 21.7305 28.888 21.7745 28.954C21.8478 29.2033 22.0147 29.4123 22.275 29.581C22.5353 29.7497 22.8928 29.834 23.3475 29.834C23.8608 29.834 24.2477 29.7478 24.508 29.5755C24.7683 29.4032 24.8985 29.1667 24.8985 28.866C24.8985 28.668 24.8325 28.503 24.7005 28.371C24.5685 28.239 24.3687 28.1235 24.101 28.0245C23.8333 27.9255 23.4355 27.8063 22.9075 27.667C22.0422 27.4617 21.4078 27.1903 21.0045 26.853C20.6012 26.5157 20.3995 26.0317 20.3995 25.401C20.3995 24.9757 20.5168 24.5962 20.7515 24.2625C20.9862 23.9288 21.3217 23.6667 21.758 23.476C22.1943 23.2853 22.7022 23.19 23.2815 23.19C23.8902 23.19 24.4163 23.2963 24.86 23.509C25.3037 23.7217 25.641 23.9875 25.872 24.3065C26.103 24.6255 26.2258 24.9427 26.2405 25.258C26.2405 25.3167 26.2185 25.3698 26.1745 25.4175C26.1305 25.4652 26.0755 25.489 26.0095 25.489H24.9645C24.8032 25.489 24.6932 25.423 24.6345 25.291C24.5978 25.0563 24.4548 24.8602 24.2055 24.7025C23.9562 24.5448 23.6482 24.466 23.2815 24.466C22.8782 24.466 22.561 24.543 22.33 24.697C22.099 24.851 21.9835 25.0747 21.9835 25.368C21.9835 25.566 22.0422 25.731 22.1595 25.863C22.2768 25.995 22.4602 26.1105 22.7095 26.2095C22.9588 26.3085 23.3218 26.4203 23.7985 26.545C24.4512 26.6917 24.97 26.8567 25.355 27.04C25.74 27.2233 26.0242 27.4543 26.2075 27.733C26.3908 28.0117 26.4825 28.3673 26.4825 28.8C26.4825 29.2767 26.3523 29.6892 26.092 30.0375C25.8317 30.3858 25.465 30.6517 24.992 30.835ZM7.6835 31C7.8155 31 7.92917 30.934 8.0245 30.802L9.7405 28.327L11.4785 30.802C11.5738 30.934 11.6875 31 11.8195 31H12.9965C13.0625 31 13.1175 30.978 13.1615 30.934C13.2055 30.89 13.2275 30.835 13.2275 30.769C13.2275 30.725 13.2165 30.681 13.1945 30.637L10.7305 27.073L13.0295 23.663C13.0588 23.6043 13.0735 23.5603 13.0735 23.531C13.0735 23.465 13.0497 23.41 13.002 23.366C12.9543 23.322 12.9012 23.3 12.8425 23.3H11.7535C11.6068 23.3 11.4932 23.3697 11.4125 23.509L9.7955 25.863L8.1895 23.509C8.09417 23.3697 7.9805 23.3 7.8485 23.3H6.6935C6.63484 23.3 6.58167 23.322 6.534 23.366C6.48634 23.41 6.4625 23.465 6.4625 23.531C6.4625 23.575 6.47717 23.619 6.5065 23.663L8.8055 27.073L6.3525 30.637C6.32317 30.6957 6.3085 30.7397 6.3085 30.769C6.3085 30.835 6.33234 30.89 6.38 30.934C6.42767 30.978 6.48084 31 6.5395 31H7.6835ZM19.3215 31C19.4022 31 19.4682 30.9743 19.5195 30.923C19.5708 30.8717 19.5965 30.8093 19.5965 30.736V29.944C19.5965 29.8707 19.5708 29.8083 19.5195 29.757C19.4682 29.7057 19.4022 29.68 19.3215 29.68H15.8345V23.564C15.8345 23.4833 15.8107 23.4192 15.763 23.3715C15.7153 23.3238 15.6512 23.3 15.5705 23.3H14.5365C14.4632 23.3 14.4008 23.3238 14.3495 23.3715C14.2982 23.4192 14.2725 23.4833 14.2725 23.564V30.736C14.2725 30.8093 14.2982 30.8717 14.3495 30.923C14.4008 30.9743 14.4632 31 14.5365 31H19.3215Z" fill="white"/>
</svg>
