<svg width="39" height="42" viewBox="0 0 39 42" fill="none" xmlns="http://www.w3.org/2000/svg">
<path fill-rule="evenodd" clip-rule="evenodd" d="M29.541 1L38 9.57585V37.1905C38 39.2944 36.3177 41 34.2424 41H10.7576C8.68232 41 7 39.2944 7 37.1905V4.80952C7 2.70558 8.68232 1 10.7576 1H29.541Z" fill="white"/>
<path fill-rule="evenodd" clip-rule="evenodd" d="M29.9952 0L39 9.00464V38C39 40.2091 37.2091 42 35 42H10C7.79086 42 6 40.2091 6 38V4C6 1.79086 7.79086 0 10 0H29.9952ZM27.999 1.999L10 2C8.94564 2 8.08183 2.81588 8.00549 3.85074L8 4V38C8 39.0544 8.81588 39.9182 9.85074 39.9945L10 40H35C36.0544 40 36.9182 39.1841 36.9945 38.1493L37 38V11H32C29.7909 11 28 9.20914 28 7L27.999 1.999ZM29.999 2.833L30 7C30 8.05436 30.8159 8.91817 31.8507 8.99451L32 9H36.167L29.999 2.833Z" fill="#979CA9"/>
<path fill-rule="evenodd" clip-rule="evenodd" d="M2 18H33C34.1046 18 35 18.8954 35 20V34C35 35.1046 34.1046 36 33 36H2C0.89543 36 0 35.1046 0 34V20C0 18.8954 0.89543 18 2 18Z" fill="#5B85CE"/>
<path fill-rule="evenodd" clip-rule="evenodd" d="M14.046 31.11C15.0433 31.11 15.8225 30.857 16.3835 30.351C16.9445 29.845 17.2397 29.0933 17.269 28.096C17.2837 27.6707 17.291 27.359 17.291 27.161C17.291 26.9557 17.2837 26.6403 17.269 26.215C17.2397 25.2397 16.9372 24.4917 16.3615 23.971C15.7858 23.4503 15.014 23.19 14.046 23.19C13.0707 23.19 12.297 23.4503 11.725 23.971C11.153 24.4917 10.8523 25.2397 10.823 26.215C10.8157 26.4277 10.812 26.743 10.812 27.161L10.8123 27.3581C10.8133 27.6728 10.8169 27.9188 10.823 28.096C10.8523 29.0933 11.1457 29.845 11.703 30.351C12.2603 30.857 13.0413 31.11 14.046 31.11ZM8.77149 30.2685C8.24715 30.7562 7.43865 31 6.34599 31H3.60699C3.53365 31 3.47132 30.9743 3.41999 30.923C3.36865 30.8717 3.34299 30.8093 3.34299 30.736V23.575C3.34299 23.4943 3.36682 23.4283 3.41449 23.377C3.46215 23.3257 3.52632 23.3 3.60699 23.3H6.29099C8.45432 23.3 9.55799 24.2973 9.60199 26.292C9.61456 26.6566 9.62174 26.9188 9.62354 27.0786L9.62399 27.15C9.62399 27.2893 9.61665 27.5717 9.60199 27.997C9.57265 29.0237 9.29582 29.7808 8.77149 30.2685ZM4.89399 29.724H6.29099C6.89965 29.724 7.33965 29.5883 7.61099 29.317C7.88232 29.0457 8.02532 28.5947 8.03999 27.964C8.05282 27.579 8.06004 27.3203 8.06164 27.188L8.06199 27.139C8.06199 27.0217 8.05465 26.7503 8.03999 26.325C8.02532 25.7237 7.87499 25.2818 7.58899 24.9995C7.30299 24.7172 6.85199 24.576 6.23599 24.576H4.89399V29.724ZM12.8745 29.3885C13.1642 29.6855 13.5547 29.834 14.046 29.834C14.5373 29.834 14.926 29.6873 15.212 29.394C15.498 29.1007 15.652 28.6497 15.674 28.041C15.6887 27.601 15.696 27.304 15.696 27.15C15.696 26.9813 15.6887 26.6843 15.674 26.259C15.652 25.6577 15.4943 25.2085 15.201 24.9115C14.9077 24.6145 14.5227 24.466 14.046 24.466C13.562 24.466 13.1733 24.6145 12.88 24.9115C12.5867 25.2085 12.4327 25.6577 12.418 26.259C12.4121 26.4291 12.4086 26.6532 12.4074 26.9313L12.407 27.15C12.407 27.524 12.4107 27.821 12.418 28.041C12.4327 28.6423 12.5848 29.0915 12.8745 29.3885ZM21.691 31.11C22.3437 31.11 22.912 30.9982 23.396 30.7745C23.88 30.5508 24.2558 30.2447 24.5235 29.856C24.7912 29.4673 24.9323 29.031 24.947 28.547C24.9543 28.481 24.9342 28.426 24.8865 28.382C24.8388 28.338 24.782 28.316 24.716 28.316H23.649C23.561 28.316 23.495 28.3362 23.451 28.3765C23.407 28.4168 23.3703 28.4883 23.341 28.591C23.231 29.0457 23.0385 29.3665 22.7635 29.5535C22.4885 29.7405 22.131 29.834 21.691 29.834C20.6423 29.834 20.096 29.2473 20.052 28.074C20.0447 27.8613 20.041 27.5497 20.041 27.139L20.0413 26.9425C20.0423 26.6298 20.0459 26.391 20.052 26.226C20.096 25.0527 20.6423 24.466 21.691 24.466C22.1383 24.466 22.4977 24.5595 22.769 24.7465C23.0403 24.9335 23.231 25.2543 23.341 25.709C23.3703 25.8117 23.407 25.8832 23.451 25.9235C23.495 25.9638 23.561 25.984 23.649 25.984H24.716C24.7747 25.984 24.8278 25.9638 24.8755 25.9235C24.9232 25.8832 24.947 25.8337 24.947 25.775V25.753C24.9323 25.269 24.7912 24.8327 24.5235 24.444C24.2558 24.0553 23.88 23.7492 23.396 23.5255C22.912 23.3018 22.3437 23.19 21.691 23.19C20.6863 23.19 19.9053 23.4522 19.348 23.9765C18.7907 24.5008 18.4937 25.2323 18.457 26.171C18.4497 26.3763 18.446 26.7063 18.446 27.161C18.446 27.6083 18.4497 27.931 18.457 28.129C18.4937 29.0823 18.7888 29.8175 19.3425 30.3345C19.8962 30.8515 20.679 31.11 21.691 31.11ZM27.125 30.802C27.0297 30.934 26.916 31 26.784 31H25.64C25.5813 31 25.5282 30.978 25.4805 30.934C25.4328 30.89 25.409 30.835 25.409 30.769C25.409 30.7397 25.4237 30.6957 25.453 30.637L27.906 27.073L25.607 23.663C25.5777 23.619 25.563 23.575 25.563 23.531C25.563 23.465 25.5868 23.41 25.6345 23.366C25.6822 23.322 25.7353 23.3 25.794 23.3H26.949C27.081 23.3 27.1947 23.3697 27.29 23.509L28.896 25.863L30.513 23.509C30.5937 23.3697 30.7073 23.3 30.854 23.3H31.943C32.0017 23.3 32.0548 23.322 32.1025 23.366C32.1502 23.41 32.174 23.465 32.174 23.531C32.174 23.5603 32.1593 23.6043 32.13 23.663L29.831 27.073L32.295 30.637C32.317 30.681 32.328 30.725 32.328 30.769C32.328 30.835 32.306 30.89 32.262 30.934C32.218 30.978 32.163 31 32.097 31H30.92C30.788 31 30.6743 30.934 30.579 30.802L28.841 28.327L27.125 30.802Z" fill="white"/>
</svg>
