<svg width="90" height="41" viewBox="0 0 90 41" fill="none" xmlns="http://www.w3.org/2000/svg">
<g id="logo_darkbackground">
<path id="Shape" fill-rule="evenodd" clip-rule="evenodd" d="M38.9686 14.4366V18.1928C39.4512 17.6942 40.2071 17.2438 41.1213 17.2438C43.083 17.2438 44.6197 18.8503 44.6197 20.9011C44.6197 22.9447 43.083 24.5455 41.1213 24.5455C40.3149 24.5455 39.5223 24.1882 38.9634 23.5914L38.9294 23.5546V24.3765H37.5839V14.4366H38.9686ZM61.336 37.5007V27.5609H59.9511V37.5007H61.336ZM71.4206 30.537V29.1073H70.0491V30.537H69.1333V31.8606H70.0491V34.922L70.0494 34.9775C70.0609 35.8256 70.3358 36.5112 70.8462 36.9625C71.2649 37.3328 71.8156 37.5236 72.4556 37.5236C72.5857 37.5236 72.7197 37.5157 72.8569 37.4998L72.9776 37.4859V36.2071L72.8324 36.2162L72.7854 36.2188C72.3349 36.2398 71.9917 36.1434 71.7654 35.9322C71.5366 35.719 71.4206 35.3791 71.4206 34.922V31.8606H72.9511V30.537H71.4206ZM43.3898 32.5412C43.3687 31.1795 42.304 30.368 40.5326 30.368C38.7612 30.368 37.5628 31.2853 37.4793 32.7049L37.471 32.8483H38.8879L38.9023 32.7288L38.9073 32.6913C39.0411 31.7889 39.9716 31.6527 40.5195 31.6527L40.565 31.653C41.4977 31.662 42.0313 31.9524 42.0313 32.4527C42.0313 32.7808 41.7969 33.1272 40.0829 33.2217L39.9761 33.2272C38.0675 33.3268 37.0998 34.0764 37.0998 35.4549C37.0998 37.0459 38.472 37.6331 39.7854 37.656L39.8657 37.6567C40.791 37.6567 41.5476 37.3992 42.0748 36.9085C42.1055 37.0982 42.1569 37.2724 42.2272 37.4225L42.264 37.5008H43.6514L43.5765 37.3149L43.5634 37.2809C43.4682 37.0227 43.3902 36.5734 43.3902 36.2734V32.5827L43.3898 32.5412ZM55.4571 30.368C57.2286 30.368 58.2933 31.1795 58.3144 32.5412L58.3147 32.5827V36.2734C58.3147 36.5734 58.3928 37.0227 58.488 37.2809L58.5011 37.3149L58.576 37.5008H57.1886L57.1518 37.4225C57.0815 37.2724 57.03 37.0982 56.9994 36.9085C56.4722 37.3992 55.7156 37.6567 54.7903 37.6567L54.7099 37.656C53.3966 37.6331 52.0244 37.0459 52.0244 35.4549C52.0244 34.0764 52.992 33.3268 54.9007 33.2272L55.0075 33.2217C56.7214 33.1272 56.9559 32.7808 56.9559 32.4527C56.9559 31.9524 56.4222 31.662 55.4895 31.653L55.4441 31.6527C54.8962 31.6527 53.9657 31.7889 53.8319 32.6913L53.8268 32.7288L53.8125 32.8483H52.3956L52.4038 32.7049C52.4873 31.2853 53.6858 30.368 55.4571 30.368ZM89.7016 32.5402C89.5344 31.1991 88.4359 30.368 86.8237 30.368C84.9144 30.368 84.0448 31.469 84.0448 32.4919C84.0448 33.8458 85.0956 34.268 86.7924 34.5106L86.8931 34.5245C88.4724 34.7497 88.5047 35.0911 88.5053 35.3967L88.5049 35.4376C88.4888 35.9056 87.9569 36.3719 86.9543 36.3719C86.0205 36.3719 85.3338 35.9207 85.2049 35.2224L85.1843 35.1113H83.7904L83.8103 35.2641L83.8163 35.3078C84.0242 36.7443 85.2507 37.6697 86.9543 37.6697C88.6869 37.6697 89.8511 36.7378 89.8511 35.3509C89.8511 33.7251 88.4616 33.4097 87.2454 33.2133L86.9675 33.1692C85.7105 32.9683 85.4478 32.8104 85.4304 32.4895L85.4294 32.4527C85.4294 32.0041 86.0418 31.6528 86.8237 31.6528C87.6341 31.6528 88.1766 32.007 88.3122 32.6247L88.3356 32.7312H89.7228L89.7063 32.581L89.7016 32.5402ZM65.4753 35.6026L63.6097 30.5369H62.1122L64.7419 37.3269L64.3932 38.2509C64.1289 38.9462 63.8137 39.158 63.0895 39.119L63.0144 39.1142L62.8677 39.1034V40.385L62.9897 40.3979L63.0663 40.4054C63.1931 40.4168 63.3148 40.4226 63.4318 40.4226C64.557 40.4226 65.2466 39.889 65.6958 38.6995L68.7869 30.5369H67.3034L65.4753 35.6026ZM80.0219 30.368C81.5354 30.368 82.7774 31.2408 83.2748 32.6494L83.2908 32.6955L83.3514 32.8743H81.8882L81.8499 32.8011C81.4693 32.0712 80.803 31.6528 80.0219 31.6528C78.8492 31.6528 77.8952 32.7171 77.8952 34.0253C77.8952 35.3193 78.8492 36.3719 80.0219 36.3719C80.8019 36.3719 81.4583 35.9688 81.8291 35.2641L81.849 35.2254L81.8867 35.1505H83.3496L83.2911 35.3282C82.8183 36.7645 81.5658 37.6567 80.0219 37.6567C78.0857 37.6567 76.5105 36.0277 76.5105 34.0253C76.5105 32.0086 78.0857 30.368 80.0219 30.368ZM48.1716 30.368C49.8112 30.368 50.8766 31.51 50.8978 33.2826L50.8981 33.3365V37.5008H49.5264V33.2977C49.5264 32.2831 48.9471 31.6527 48.0146 31.6527C47.0824 31.6527 46.4026 32.3162 46.3853 33.2355L46.3849 33.2715V37.5008H45.0003V30.5369H46.3458V31.057C46.8278 30.6103 47.4641 30.368 48.1716 30.368ZM75.3578 30.537V37.5007H73.9731V30.537H75.3578ZM55.1857 34.4252C55.8141 34.3805 56.486 34.2999 56.9559 34.0281V34.7892L56.9547 34.8275C56.9067 35.9558 55.8299 36.3589 54.8295 36.3589C54.3985 36.3589 53.396 36.2709 53.396 35.4549C53.396 35.0275 53.5852 34.5252 55.0607 34.4337L55.1857 34.4252ZM42.0313 34.0281C41.5615 34.2999 40.8894 34.3805 40.2611 34.4252L40.1361 34.4337C38.6607 34.5252 38.4715 35.0275 38.4715 35.4549C38.4715 36.2709 39.4739 36.3589 39.9049 36.3589C40.9053 36.3589 41.9822 35.9558 42.0301 34.8275L42.0313 34.7892V34.0281ZM75.3578 29.7945V28.2108H73.9731V29.7945H75.3578ZM71.5649 24.3765V14.4366H70.1803V18.1928L70.1521 18.1641C69.6684 17.677 68.9241 17.2438 68.0274 17.2438C66.0584 17.2438 64.516 18.8503 64.516 20.9011C64.516 22.9447 66.0584 24.5455 68.0274 24.5455C68.8502 24.5455 69.6588 24.1735 70.2194 23.5546V24.3765H71.5649ZM53.0376 17.2438C54.8088 17.2438 55.8734 18.0553 55.8945 19.4171L55.8948 19.4585V23.1492C55.8948 23.4492 55.973 23.8986 56.0681 24.1566L56.0812 24.1906L56.156 24.3765H54.7687L54.7318 24.2981C54.6615 24.1483 54.6101 23.974 54.5795 23.7841C54.0523 24.2749 53.2956 24.5325 52.3704 24.5325L52.29 24.5318C50.9767 24.509 49.6045 23.9217 49.6045 22.3307C49.6045 20.9522 50.5721 20.2025 52.4808 20.103L52.5876 20.0976C54.3015 20.0029 54.536 19.6565 54.536 19.3285C54.536 18.8282 54.0023 18.5379 53.0696 18.5288L53.0242 18.5286C52.4763 18.5286 51.5457 18.6646 51.412 19.5671L51.4069 19.6047L51.3925 19.7241H49.9756L49.9839 19.5805C50.0674 18.161 51.266 17.2438 53.0376 17.2438ZM63.4024 20.1585C63.3812 18.3859 62.3159 17.2437 60.6762 17.2437C59.9688 17.2437 59.3326 17.486 58.8504 17.9328V17.4127H57.505V24.3765H58.8897V20.1472L58.89 20.1113C58.9073 19.192 59.5871 18.5286 60.5193 18.5286C61.4518 18.5286 62.0311 19.1587 62.0311 20.1734V24.3765H63.4027V20.2124L63.4024 20.1585ZM49.1471 17.2525L49.1949 17.2577L49.3153 17.2719V18.6272L49.1711 18.6191C48.551 18.585 48.0111 18.7512 47.6519 19.0887C47.3337 19.3877 47.1674 19.8011 47.1574 20.318L47.1569 20.3683V24.3765H45.7722V17.4127H47.1177V17.9347C47.6271 17.4369 48.3832 17.1765 49.1471 17.2525ZM65.9007 20.9141C65.9007 19.5837 66.8348 18.5415 68.0274 18.5415C69.2145 18.5415 70.1803 19.6058 70.1803 20.9141C70.1803 22.1861 69.1943 23.2606 68.0274 23.2606C66.8547 23.2606 65.9007 22.208 65.9007 20.9141ZM41.1213 18.5415C39.9343 18.5415 38.9686 19.6058 38.9686 20.9141C38.9686 22.1861 39.9544 23.2606 41.1213 23.2606C42.2867 23.2606 43.2348 22.208 43.2348 20.9141C43.2348 19.5837 42.3064 18.5415 41.1213 18.5415ZM52.7031 21.3052C53.3492 21.2612 54.0504 21.1848 54.536 20.9037V21.6651L54.5348 21.7034C54.4868 22.8316 53.4099 23.2347 52.4096 23.2347C51.9786 23.2347 50.9761 23.1465 50.9761 22.3307C50.9761 21.9034 51.1653 21.4008 52.6407 21.3094L52.7031 21.3052Z" fill="white"/>
<path id="Combined Shape" fill-rule="evenodd" clip-rule="evenodd" d="M30.723 25.7486C30.7512 17.311 23.8836 10.4231 15.4135 10.3944C14.1037 10.3902 12.8183 10.5537 11.6027 10.8584V14.7706L11.708 14.735C12.8694 14.3496 14.1107 14.1401 15.4008 14.1444C21.7954 14.1658 26.9801 19.3656 26.9586 25.736C26.9585 25.7651 26.9574 25.7939 26.9562 25.8227C26.9554 25.8455 26.9545 25.8683 26.9541 25.8912H26.9566L26.9331 39.4868H30.6762L30.7212 26.1834H30.7102L30.718 25.9664C30.7206 25.8941 30.7226 25.8216 30.723 25.7486ZM3.76549 25.6247L3.79912 15.6395L3.72886 15.7201C1.41927 18.3884 0.0132151 21.8544 8.73973e-05 25.6455C-0.0282536 34.0832 6.83982 40.9711 15.31 40.9997C18.9208 41.0116 22.2646 39.7575 24.897 37.6813V32.2626L24.8335 32.353C22.7238 35.3238 19.245 37.2629 15.3226 37.2498C8.96805 37.2285 3.81037 32.0929 3.76713 25.777H3.76495L3.76527 25.6915L3.76451 25.6582L3.76549 25.6247Z" fill="#5881C1"/>
<path id="Combined Shape_2" fill-rule="evenodd" clip-rule="evenodd" d="M9.55226 0.0124437L5.79681 0V25.7494H5.79911L5.80025 25.9027C5.87857 30.9497 9.97963 35.0938 15.1202 35.2227C15.1352 35.2229 15.1502 35.2232 15.1652 35.2234C15.222 35.2243 15.2785 35.2252 15.3349 35.2252C17.8103 35.2333 20.1529 34.3125 21.9527 32.6177C23.804 30.8739 24.8594 28.5207 24.9233 25.9916C24.9876 23.4616 24.0532 21.0589 22.2927 19.2257C20.5323 17.3916 18.156 16.3469 15.6022 16.2834C13.5952 16.2459 11.6884 16.7941 10.067 17.8644L9.54757 18.2312L9.55226 0.0124437ZM11.3373 21.5627C12.4361 20.5286 13.866 19.966 15.3772 19.971L15.385 19.9711C15.426 19.9712 15.4673 19.9714 15.5082 19.9731C17.0674 20.0116 18.518 20.6487 19.5928 21.7681C20.6675 22.8873 21.2376 24.3545 21.1984 25.8981C21.1592 27.4427 20.5154 28.8792 19.3851 29.9435C18.2544 31.0071 16.7577 31.5845 15.2145 31.5332C11.9957 31.4529 9.44322 28.7947 9.52386 25.608C9.56319 24.0636 10.207 22.627 11.3373 21.5627Z" fill="#A3CF62"/>
</g>
</svg>
