<svg width="24" height="24" viewBox="0 0 24 24" fill="none" xmlns="http://www.w3.org/2000/svg">
<mask id="mask0_309_110" style="mask-type:luminance" maskUnits="userSpaceOnUse" x="0" y="0" width="24" height="24">
<circle cx="12" cy="12" r="12" fill="white"/>
</mask>
<g mask="url(#mask0_309_110)">
<rect width="24" height="24" fill="#EDEEEF"/>
<path fill-rule="evenodd" clip-rule="evenodd" d="M20.8473 24H2.85004L2.85004 19.8745C2.84865 19.3367 3.0855 18.8264 3.49582 18.4831C5.12751 17.1567 6.89613 16.0117 8.77102 15.0679C8.82758 15.0405 8.86359 14.9828 8.86366 14.9194V13.1953C8.60886 12.7597 8.43524 12.2807 8.3514 11.7819C8.15522 11.7654 7.89909 11.4877 7.62116 10.5005C7.26421 9.22738 7.59936 8.9744 7.92361 8.97715C7.75195 8.23471 7.31325 5.64991 9.22061 4.47576C8.99143 4.27989 8.85895 3.9924 8.85821 3.68932C8.85821 3.68932 11.038 3.9368 12.0844 3.71957C13.1307 3.50234 14.2642 4.33552 14.4468 5.13571C14.4468 5.13571 16.5803 5.13571 15.7519 8.9854C16.0844 8.97165 16.4468 9.20263 16.0816 10.5088C15.8092 11.4987 15.5367 11.7764 15.3514 11.7902C15.2676 12.2889 15.0939 12.7679 14.8391 13.2036V14.9277C14.8392 14.991 14.8752 15.0487 14.9318 15.0762C16.8054 16.0175 18.573 17.1598 20.2043 18.4831C20.6146 18.8264 20.8514 19.3367 20.85 19.8745L20.8473 24Z" fill="#979CA9"/>
</g>
</svg>
